<svg width="724" height="262" viewBox="0 0 724 262" fill="none" xmlns="http://www.w3.org/2000/svg">
<path d="M19.1838 229.834C19.1838 228.229 19.4451 226.978 19.9678 226.082C20.4905 225.177 21.4051 224.724 22.7118 224.724C24.0091 224.724 24.9191 225.177 25.4418 226.082C25.9645 226.978 26.2258 228.229 26.2258 229.834C26.2258 231.467 25.9645 232.737 25.4418 233.642C24.9191 234.547 24.0091 235 22.7118 235C21.4051 235 20.4905 234.547 19.9678 233.642C19.4451 232.737 19.1838 231.467 19.1838 229.834ZM24.9658 229.834C24.9658 229.022 24.9098 228.336 24.7978 227.776C24.6951 227.207 24.4758 226.749 24.1398 226.404C23.8131 226.059 23.3371 225.886 22.7118 225.886C22.0771 225.886 21.5918 226.059 21.2558 226.404C20.9291 226.749 20.7098 227.207 20.5978 227.776C20.4951 228.336 20.4438 229.022 20.4438 229.834C20.4438 230.674 20.4951 231.379 20.5978 231.948C20.7098 232.517 20.9291 232.975 21.2558 233.32C21.5918 233.665 22.0771 233.838 22.7118 233.838C23.3371 233.838 23.8131 233.665 24.1398 233.32C24.4758 232.975 24.6951 232.517 24.7978 231.948C24.9098 231.379 24.9658 230.674 24.9658 229.834Z" fill="#A2A3A5"/>
<line x1="37.3158" y1="229.5" x2="724" y2="229.5" stroke="#ECE9F1"/>
<path d="M3.76399 164.04V162.878H6.39599V173H5.10799V164.04H3.76399ZM8.58437 167.834C8.58437 166.229 8.8457 164.978 9.36837 164.082C9.89104 163.177 10.8057 162.724 12.1124 162.724C13.4097 162.724 14.3197 163.177 14.8424 164.082C15.365 164.978 15.6264 166.229 15.6264 167.834C15.6264 169.467 15.365 170.737 14.8424 171.642C14.3197 172.547 13.4097 173 12.1124 173C10.8057 173 9.89104 172.547 9.36837 171.642C8.8457 170.737 8.58437 169.467 8.58437 167.834ZM14.3664 167.834C14.3664 167.022 14.3104 166.336 14.1984 165.776C14.0957 165.207 13.8764 164.749 13.5404 164.404C13.2137 164.059 12.7377 163.886 12.1124 163.886C11.4777 163.886 10.9924 164.059 10.6564 164.404C10.3297 164.749 10.1104 165.207 9.99837 165.776C9.8957 166.336 9.84437 167.022 9.84437 167.834C9.84437 168.674 9.8957 169.379 9.99837 169.948C10.1104 170.517 10.3297 170.975 10.6564 171.32C10.9924 171.665 11.4777 171.838 12.1124 171.838C12.7377 171.838 13.2137 171.665 13.5404 171.32C13.8764 170.975 14.0957 170.517 14.1984 169.948C14.3104 169.379 14.3664 168.674 14.3664 167.834ZM17.3754 167.834C17.3754 166.229 17.6367 164.978 18.1594 164.082C18.6821 163.177 19.5967 162.724 20.9034 162.724C22.2007 162.724 23.1107 163.177 23.6334 164.082C24.1561 164.978 24.4174 166.229 24.4174 167.834C24.4174 169.467 24.1561 170.737 23.6334 171.642C23.1107 172.547 22.2007 173 20.9034 173C19.5967 173 18.6821 172.547 18.1594 171.642C17.6367 170.737 17.3754 169.467 17.3754 167.834ZM23.1574 167.834C23.1574 167.022 23.1014 166.336 22.9894 165.776C22.8867 165.207 22.6674 164.749 22.3314 164.404C22.0047 164.059 21.5287 163.886 20.9034 163.886C20.2687 163.886 19.7834 164.059 19.4474 164.404C19.1207 164.749 18.9014 165.207 18.7894 165.776C18.6867 166.336 18.6354 167.022 18.6354 167.834C18.6354 168.674 18.6867 169.379 18.7894 169.948C18.9014 170.517 19.1207 170.975 19.4474 171.32C19.7834 171.665 20.2687 171.838 20.9034 171.838C21.5287 171.838 22.0047 171.665 22.3314 171.32C22.6674 170.975 22.8867 170.517 22.9894 169.948C23.1014 169.379 23.1574 168.674 23.1574 167.834Z" fill="#A2A3A5"/>
<line x1="36.232" y1="167.5" x2="724" y2="167.5" stroke="#ECE9F1"/>
<path d="M0.714 109.978C1.89933 109.026 2.828 108.247 3.5 107.64C4.172 107.024 4.73667 106.385 5.194 105.722C5.66067 105.05 5.894 104.392 5.894 103.748C5.894 103.141 5.74467 102.665 5.446 102.32C5.15667 101.965 4.68533 101.788 4.032 101.788C3.39733 101.788 2.90267 101.989 2.548 102.39C2.20267 102.782 2.016 103.309 1.988 103.972H0.756C0.793333 102.927 1.11067 102.119 1.708 101.55C2.30533 100.981 3.07533 100.696 4.018 100.696C4.97933 100.696 5.74 100.962 6.3 101.494C6.86933 102.026 7.154 102.759 7.154 103.692C7.154 104.467 6.92067 105.223 6.454 105.96C5.99667 106.688 5.474 107.332 4.886 107.892C4.298 108.443 3.54667 109.087 2.632 109.824H7.448V110.888H0.714V109.978ZM8.92073 105.834C8.92073 104.229 9.18207 102.978 9.70473 102.082C10.2274 101.177 11.1421 100.724 12.4487 100.724C13.7461 100.724 14.6561 101.177 15.1787 102.082C15.7014 102.978 15.9627 104.229 15.9627 105.834C15.9627 107.467 15.7014 108.737 15.1787 109.642C14.6561 110.547 13.7461 111 12.4487 111C11.1421 111 10.2274 110.547 9.70473 109.642C9.18207 108.737 8.92073 107.467 8.92073 105.834ZM14.7027 105.834C14.7027 105.022 14.6467 104.336 14.5347 103.776C14.4321 103.207 14.2127 102.749 13.8767 102.404C13.5501 102.059 13.0741 101.886 12.4487 101.886C11.8141 101.886 11.3287 102.059 10.9927 102.404C10.6661 102.749 10.4467 103.207 10.3347 103.776C10.2321 104.336 10.1807 105.022 10.1807 105.834C10.1807 106.674 10.2321 107.379 10.3347 107.948C10.4467 108.517 10.6661 108.975 10.9927 109.32C11.3287 109.665 11.8141 109.838 12.4487 109.838C13.0741 109.838 13.5501 109.665 13.8767 109.32C14.2127 108.975 14.4321 108.517 14.5347 107.948C14.6467 107.379 14.7027 106.674 14.7027 105.834ZM17.7118 105.834C17.7118 104.229 17.9731 102.978 18.4958 102.082C19.0184 101.177 19.9331 100.724 21.2398 100.724C22.5371 100.724 23.4471 101.177 23.9698 102.082C24.4924 102.978 24.7537 104.229 24.7537 105.834C24.7537 107.467 24.4924 108.737 23.9698 109.642C23.4471 110.547 22.5371 111 21.2398 111C19.9331 111 19.0184 110.547 18.4958 109.642C17.9731 108.737 17.7118 107.467 17.7118 105.834ZM23.4938 105.834C23.4938 105.022 23.4378 104.336 23.3258 103.776C23.2231 103.207 23.0038 102.749 22.6678 102.404C22.3411 102.059 21.8651 101.886 21.2398 101.886C20.6051 101.886 20.1198 102.059 19.7838 102.404C19.4571 102.749 19.2378 103.207 19.1258 103.776C19.0231 104.336 18.9718 105.022 18.9718 105.834C18.9718 106.674 19.0231 107.379 19.1258 107.948C19.2378 108.517 19.4571 108.975 19.7838 109.32C20.1198 109.665 20.6051 109.838 21.2398 109.838C21.8651 109.838 22.3411 109.665 22.6678 109.32C23.0038 108.975 23.2231 108.517 23.3258 107.948C23.4378 107.379 23.4938 106.674 23.4938 105.834Z" fill="#A2A3A5"/>
<line x1="36" y1="105.5" x2="724" y2="105.5" stroke="#ECE9F1"/>
<path d="M0.84 41.426C0.905333 40.5673 1.23667 39.8953 1.834 39.41C2.43133 38.9247 3.206 38.682 4.158 38.682C4.79267 38.682 5.33867 38.7987 5.796 39.032C6.26267 39.256 6.61267 39.564 6.846 39.956C7.08867 40.348 7.21 40.7913 7.21 41.286C7.21 41.8647 7.042 42.364 6.706 42.784C6.37933 43.204 5.95 43.4747 5.418 43.596V43.666C6.02467 43.8153 6.50533 44.1093 6.86 44.548C7.21467 44.9867 7.392 45.5607 7.392 46.27C7.392 46.802 7.27067 47.2827 7.028 47.712C6.78533 48.132 6.42133 48.4633 5.936 48.706C5.45067 48.9487 4.86733 49.07 4.186 49.07C3.19667 49.07 2.38467 48.8133 1.75 48.3C1.11533 47.7773 0.760667 47.04 0.686 46.088H1.918C1.98333 46.648 2.212 47.1053 2.604 47.46C2.996 47.8147 3.51867 47.992 4.172 47.992C4.82533 47.992 5.32 47.824 5.656 47.488C6.00133 47.1427 6.174 46.6993 6.174 46.158C6.174 45.458 5.94067 44.954 5.474 44.646C5.00733 44.338 4.30267 44.184 3.36 44.184H3.038V43.12H3.374C4.23267 43.1107 4.88133 42.9707 5.32 42.7C5.75867 42.42 5.978 41.9907 5.978 41.412C5.978 40.9173 5.81467 40.5207 5.488 40.222C5.17067 39.9233 4.71333 39.774 4.116 39.774C3.53733 39.774 3.07067 39.9233 2.716 40.222C2.36133 40.5207 2.15133 40.922 2.086 41.426H0.84ZM9.11214 43.834C9.11214 42.2287 9.37347 40.978 9.89614 40.082C10.4188 39.1767 11.3335 38.724 12.6401 38.724C13.9375 38.724 14.8475 39.1767 15.3701 40.082C15.8928 40.978 16.1541 42.2287 16.1541 43.834C16.1541 45.4673 15.8928 46.7367 15.3701 47.642C14.8475 48.5473 13.9375 49 12.6401 49C11.3335 49 10.4188 48.5473 9.89614 47.642C9.37347 46.7367 9.11214 45.4673 9.11214 43.834ZM14.8941 43.834C14.8941 43.022 14.8381 42.336 14.7261 41.776C14.6235 41.2067 14.4041 40.7493 14.0681 40.404C13.7415 40.0587 13.2655 39.886 12.6401 39.886C12.0055 39.886 11.5201 40.0587 11.1841 40.404C10.8575 40.7493 10.6381 41.2067 10.5261 41.776C10.4235 42.336 10.3721 43.022 10.3721 43.834C10.3721 44.674 10.4235 45.3787 10.5261 45.948C10.6381 46.5173 10.8575 46.9747 11.1841 47.32C11.5201 47.6653 12.0055 47.838 12.6401 47.838C13.2655 47.838 13.7415 47.6653 14.0681 47.32C14.4041 46.9747 14.6235 46.5173 14.7261 45.948C14.8381 45.3787 14.8941 44.674 14.8941 43.834ZM17.9032 43.834C17.9032 42.2287 18.1645 40.978 18.6872 40.082C19.2098 39.1767 20.1245 38.724 21.4312 38.724C22.7285 38.724 23.6385 39.1767 24.1612 40.082C24.6838 40.978 24.9452 42.2287 24.9452 43.834C24.9452 45.4673 24.6838 46.7367 24.1612 47.642C23.6385 48.5473 22.7285 49 21.4312 49C20.1245 49 19.2098 48.5473 18.6872 47.642C18.1645 46.7367 17.9032 45.4673 17.9032 43.834ZM23.6852 43.834C23.6852 43.022 23.6292 42.336 23.5172 41.776C23.4145 41.2067 23.1952 40.7493 22.8592 40.404C22.5325 40.0587 22.0565 39.886 21.4312 39.886C20.7965 39.886 20.3112 40.0587 19.9752 40.404C19.6485 40.7493 19.4292 41.2067 19.3172 41.776C19.2145 42.336 19.1632 43.022 19.1632 43.834C19.1632 44.674 19.2145 45.3787 19.3172 45.948C19.4292 46.5173 19.6485 46.9747 19.9752 47.32C20.3112 47.6653 20.7965 47.838 21.4312 47.838C22.0565 47.838 22.5325 47.6653 22.8592 47.32C23.1952 46.9747 23.4145 46.5173 23.5172 45.948C23.6292 45.3787 23.6852 44.674 23.6852 43.834Z" fill="#A2A3A5"/>
<line x1="36" y1="43.5" x2="724" y2="43.5" stroke="#ECE9F1"/>
<path d="M39.6536 251.834C39.6536 250.229 39.9149 248.978 40.4376 248.082C40.9603 247.177 41.8749 246.724 43.1816 246.724C44.4789 246.724 45.3889 247.177 45.9116 248.082C46.4343 248.978 46.6956 250.229 46.6956 251.834C46.6956 253.467 46.4343 254.737 45.9116 255.642C45.3889 256.547 44.4789 257 43.1816 257C41.8749 257 40.9603 256.547 40.4376 255.642C39.9149 254.737 39.6536 253.467 39.6536 251.834ZM45.4356 251.834C45.4356 251.022 45.3796 250.336 45.2676 249.776C45.1649 249.207 44.9456 248.749 44.6096 248.404C44.2829 248.059 43.8069 247.886 43.1816 247.886C42.5469 247.886 42.0616 248.059 41.7256 248.404C41.3989 248.749 41.1796 249.207 41.0676 249.776C40.9649 250.336 40.9136 251.022 40.9136 251.834C40.9136 252.674 40.9649 253.379 41.0676 253.948C41.1796 254.517 41.3989 254.975 41.7256 255.32C42.0616 255.665 42.5469 255.838 43.1816 255.838C43.8069 255.838 44.2829 255.665 44.6096 255.32C44.9456 254.975 45.1649 254.517 45.2676 253.948C45.3796 253.379 45.4356 252.674 45.4356 251.834Z" fill="#A2A3A5"/>
<path d="M187.045 251.834C187.045 250.229 187.306 248.978 187.829 248.082C188.352 247.177 189.266 246.724 190.573 246.724C191.87 246.724 192.78 247.177 193.303 248.082C193.826 248.978 194.087 250.229 194.087 251.834C194.087 253.467 193.826 254.737 193.303 255.642C192.78 256.547 191.87 257 190.573 257C189.266 257 188.352 256.547 187.829 255.642C187.306 254.737 187.045 253.467 187.045 251.834ZM192.827 251.834C192.827 251.022 192.771 250.336 192.659 249.776C192.556 249.207 192.337 248.749 192.001 248.404C191.674 248.059 191.198 247.886 190.573 247.886C189.938 247.886 189.453 248.059 189.117 248.404C188.79 248.749 188.571 249.207 188.459 249.776C188.356 250.336 188.305 251.022 188.305 251.834C188.305 252.674 188.356 253.379 188.459 253.948C188.571 254.517 188.79 254.975 189.117 255.32C189.453 255.665 189.938 255.838 190.573 255.838C191.198 255.838 191.674 255.665 192.001 255.32C192.337 254.975 192.556 254.517 192.659 253.948C192.771 253.379 192.827 252.674 192.827 251.834ZM202.066 247.872L198.174 257H196.886L200.834 247.998H195.43V246.906H202.066V247.872Z" fill="#A2A3A5"/>
<path d="M334.1 248.04V246.878H336.732V257H335.444V248.04H334.1ZM338.613 254.746V253.78L343.527 246.976H345.053V253.64H346.453V254.746H345.053V257H343.793V254.746H338.613ZM343.849 248.306L340.083 253.64H343.849V248.306Z" fill="#A2A3A5"/>
<path d="M480.674 255.978C481.859 255.026 482.788 254.247 483.46 253.64C484.132 253.024 484.696 252.385 485.154 251.722C485.62 251.05 485.854 250.392 485.854 249.748C485.854 249.141 485.704 248.665 485.406 248.32C485.116 247.965 484.645 247.788 483.992 247.788C483.357 247.788 482.862 247.989 482.508 248.39C482.162 248.782 481.976 249.309 481.948 249.972H480.716C480.753 248.927 481.07 248.119 481.668 247.55C482.265 246.981 483.035 246.696 483.978 246.696C484.939 246.696 485.7 246.962 486.26 247.494C486.829 248.026 487.114 248.759 487.114 249.692C487.114 250.467 486.88 251.223 486.414 251.96C485.956 252.688 485.434 253.332 484.846 253.892C484.258 254.443 483.506 255.087 482.592 255.824H487.408V256.888H480.674V255.978ZM488.544 248.04V246.878H491.176V257H489.888V248.04H488.544Z" fill="#A2A3A5"/>
<path d="M629.065 255.978C630.25 255.026 631.179 254.247 631.851 253.64C632.523 253.024 633.088 252.385 633.545 251.722C634.012 251.05 634.245 250.392 634.245 249.748C634.245 249.141 634.096 248.665 633.797 248.32C633.508 247.965 633.036 247.788 632.383 247.788C631.748 247.788 631.254 247.989 630.899 248.39C630.554 248.782 630.367 249.309 630.339 249.972H629.107C629.144 248.927 629.462 248.119 630.059 247.55C630.656 246.981 631.426 246.696 632.369 246.696C633.33 246.696 634.091 246.962 634.651 247.494C635.22 248.026 635.505 248.759 635.505 249.692C635.505 250.467 635.272 251.223 634.805 251.96C634.348 252.688 633.825 253.332 633.237 253.892C632.649 254.443 631.898 255.087 630.983 255.824H635.799V256.888H629.065V255.978ZM639.12 251.736C638.597 251.531 638.196 251.232 637.916 250.84C637.636 250.448 637.496 249.972 637.496 249.412C637.496 248.908 637.622 248.455 637.874 248.054C638.126 247.643 638.499 247.321 638.994 247.088C639.498 246.845 640.104 246.724 640.814 246.724C641.523 246.724 642.125 246.845 642.62 247.088C643.124 247.321 643.502 247.643 643.754 248.054C644.015 248.455 644.146 248.908 644.146 249.412C644.146 249.953 644.001 250.429 643.712 250.84C643.422 251.241 643.026 251.54 642.522 251.736C643.1 251.913 643.558 252.226 643.894 252.674C644.239 253.113 644.412 253.645 644.412 254.27C644.412 254.877 644.262 255.409 643.964 255.866C643.665 256.314 643.24 256.664 642.69 256.916C642.148 257.159 641.523 257.28 640.814 257.28C640.104 257.28 639.479 257.159 638.938 256.916C638.406 256.664 637.99 256.314 637.692 255.866C637.393 255.409 637.244 254.877 637.244 254.27C637.244 253.645 637.412 253.108 637.748 252.66C638.084 252.212 638.541 251.904 639.12 251.736ZM642.914 249.566C642.914 248.997 642.727 248.558 642.354 248.25C641.98 247.942 641.467 247.788 640.814 247.788C640.17 247.788 639.661 247.942 639.288 248.25C638.914 248.558 638.728 249.001 638.728 249.58C638.728 250.103 638.919 250.523 639.302 250.84C639.694 251.157 640.198 251.316 640.814 251.316C641.439 251.316 641.943 251.157 642.326 250.84C642.718 250.513 642.914 250.089 642.914 249.566ZM640.814 252.296C640.123 252.296 639.558 252.459 639.12 252.786C638.681 253.103 638.462 253.584 638.462 254.228C638.462 254.825 638.672 255.306 639.092 255.67C639.521 256.034 640.095 256.216 640.814 256.216C641.532 256.216 642.102 256.034 642.522 255.67C642.942 255.306 643.152 254.825 643.152 254.228C643.152 253.603 642.937 253.127 642.508 252.8C642.078 252.464 641.514 252.296 640.814 252.296Z" fill="#A2A3A5"/>
<g filter="url(#filter0_dd_107_721)">
<path d="M38.7856 125C38.7856 125 85.927 115.323 116.25 110.058C199.898 95.5347 247.35 75.5354 331.56 84.0304C377.622 88.677 401.766 112.122 447.955 110.058C480.154 108.619 528.994 91.2603 528.994 91.2603" stroke="#2D5BFF" stroke-width="4"/>
</g>
<g filter="url(#filter1_dd_107_721)">
<ellipse cx="530.071" cy="88" rx="12.9286" ry="12" fill="white"/>
</g>
<ellipse cx="530.072" cy="88" rx="8.61905" ry="8" fill="#2D5BFF"/>
<g filter="url(#filter2_dd_107_721)">
<path fill-rule="evenodd" clip-rule="evenodd" d="M532.872 86.4891C531.018 88.5036 528.012 88.5036 526.159 86.4891L522.08 82.2739C521.21 81.3751 520.775 80.9256 520.264 80.604C519.81 80.3188 519.314 80.1084 518.794 79.9807C518.207 79.8367 517.581 79.8367 516.331 79.8367H468.646C462.163 79.8367 459.811 79.2684 457.441 78.2012C455.071 77.134 453.21 75.568 451.943 73.5725C450.675 71.5771 450 69.5978 450 64.1395V23.6973C450 18.239 450.675 16.2597 451.943 14.2642C453.21 12.2687 455.071 10.7027 457.441 9.63551C459.811 8.56832 462.163 8 468.646 8H591.354C597.837 8 600.189 8.56832 602.559 9.63551C604.929 10.7027 606.79 12.2687 608.057 14.2642C609.325 16.2597 610 18.239 610 23.6973V64.1395C610 69.5978 609.325 71.5771 608.057 73.5725C606.79 75.568 604.929 77.134 602.559 78.2012C600.189 79.2684 597.837 79.8367 591.354 79.8367H546.091C543.589 79.8367 542.339 79.8367 541.165 80.1247C540.124 80.38 539.132 80.8008 538.224 81.3712C537.201 82.0146 536.332 82.9134 534.592 84.711L532.872 86.4891Z" fill="white"/>
</g>
<path d="M485.531 24.636V25.524H483.251V33H482.159V25.524H479.867V24.636H485.531ZM489.743 33.108C489.127 33.108 488.567 32.968 488.063 32.688C487.567 32.408 487.175 32.012 486.887 31.5C486.607 30.98 486.467 30.38 486.467 29.7C486.467 29.028 486.611 28.436 486.899 27.924C487.195 27.404 487.595 27.008 488.099 26.736C488.603 26.456 489.167 26.316 489.791 26.316C490.415 26.316 490.979 26.456 491.483 26.736C491.987 27.008 492.383 27.4 492.671 27.912C492.967 28.424 493.115 29.02 493.115 29.7C493.115 30.38 492.963 30.98 492.659 31.5C492.363 32.012 491.959 32.408 491.447 32.688C490.935 32.968 490.367 33.108 489.743 33.108ZM489.743 32.148C490.135 32.148 490.503 32.056 490.847 31.872C491.191 31.688 491.467 31.412 491.675 31.044C491.891 30.676 491.999 30.228 491.999 29.7C491.999 29.172 491.895 28.724 491.687 28.356C491.479 27.988 491.207 27.716 490.871 27.54C490.535 27.356 490.171 27.264 489.779 27.264C489.379 27.264 489.011 27.356 488.675 27.54C488.347 27.716 488.083 27.988 487.883 28.356C487.683 28.724 487.583 29.172 487.583 29.7C487.583 30.236 487.679 30.688 487.871 31.056C488.071 31.424 488.335 31.7 488.663 31.884C488.991 32.06 489.351 32.148 489.743 32.148ZM494.143 29.688C494.143 29.016 494.279 28.428 494.551 27.924C494.823 27.412 495.195 27.016 495.667 26.736C496.147 26.456 496.683 26.316 497.275 26.316C497.787 26.316 498.263 26.436 498.703 26.676C499.143 26.908 499.479 27.216 499.711 27.6V24.12H500.815V33H499.711V31.764C499.495 32.156 499.175 32.48 498.751 32.736C498.327 32.984 497.831 33.108 497.263 33.108C496.679 33.108 496.147 32.964 495.667 32.676C495.195 32.388 494.823 31.984 494.551 31.464C494.279 30.944 494.143 30.352 494.143 29.688ZM499.711 29.7C499.711 29.204 499.611 28.772 499.411 28.404C499.211 28.036 498.939 27.756 498.595 27.564C498.259 27.364 497.887 27.264 497.479 27.264C497.071 27.264 496.699 27.36 496.363 27.552C496.027 27.744 495.759 28.024 495.559 28.392C495.359 28.76 495.259 29.192 495.259 29.688C495.259 30.192 495.359 30.632 495.559 31.008C495.759 31.376 496.027 31.66 496.363 31.86C496.699 32.052 497.071 32.148 497.479 32.148C497.887 32.148 498.259 32.052 498.595 31.86C498.939 31.66 499.211 31.376 499.411 31.008C499.611 30.632 499.711 30.196 499.711 29.7ZM502.252 29.688C502.252 29.016 502.388 28.428 502.66 27.924C502.932 27.412 503.304 27.016 503.776 26.736C504.256 26.456 504.788 26.316 505.372 26.316C505.948 26.316 506.448 26.44 506.872 26.688C507.296 26.936 507.612 27.248 507.82 27.624V26.424H508.924V33H507.82V31.776C507.604 32.16 507.28 32.48 506.848 32.736C506.424 32.984 505.928 33.108 505.36 33.108C504.776 33.108 504.248 32.964 503.776 32.676C503.304 32.388 502.932 31.984 502.66 31.464C502.388 30.944 502.252 30.352 502.252 29.688ZM507.82 29.7C507.82 29.204 507.72 28.772 507.52 28.404C507.32 28.036 507.048 27.756 506.704 27.564C506.368 27.364 505.996 27.264 505.588 27.264C505.18 27.264 504.808 27.36 504.472 27.552C504.136 27.744 503.868 28.024 503.668 28.392C503.468 28.76 503.368 29.192 503.368 29.688C503.368 30.192 503.468 30.632 503.668 31.008C503.868 31.376 504.136 31.66 504.472 31.86C504.808 32.052 505.18 32.148 505.588 32.148C505.996 32.148 506.368 32.052 506.704 31.86C507.048 31.66 507.32 31.376 507.52 31.008C507.72 30.632 507.82 30.196 507.82 29.7ZM516.434 26.424L512.474 36.096H511.346L512.642 32.928L509.99 26.424H511.202L513.266 31.752L515.306 26.424H516.434ZM518.659 31.488L517.315 34.716H516.583L517.459 31.488H518.659ZM522.798 32.124C523.814 31.308 524.61 30.64 525.186 30.12C525.762 29.592 526.246 29.044 526.638 28.476C527.038 27.9 527.238 27.336 527.238 26.784C527.238 26.264 527.11 25.856 526.854 25.56C526.606 25.256 526.202 25.104 525.642 25.104C525.098 25.104 524.674 25.276 524.37 25.62C524.074 25.956 523.914 26.408 523.89 26.976H522.834C522.866 26.08 523.138 25.388 523.65 24.9C524.162 24.412 524.822 24.168 525.63 24.168C526.454 24.168 527.106 24.396 527.586 24.852C528.074 25.308 528.318 25.936 528.318 26.736C528.318 27.4 528.118 28.048 527.718 28.68C527.326 29.304 526.878 29.856 526.374 30.336C525.87 30.808 525.226 31.36 524.442 31.992H528.57V32.904H522.798V32.124ZM529.808 26.508C529.864 25.772 530.148 25.196 530.66 24.78C531.172 24.364 531.836 24.156 532.652 24.156C533.196 24.156 533.664 24.256 534.056 24.456C534.456 24.648 534.756 24.912 534.956 25.248C535.164 25.584 535.268 25.964 535.268 26.388C535.268 26.884 535.124 27.312 534.836 27.672C534.556 28.032 534.188 28.264 533.732 28.368V28.428C534.252 28.556 534.664 28.808 534.968 29.184C535.272 29.56 535.424 30.052 535.424 30.66C535.424 31.116 535.32 31.528 535.112 31.896C534.904 32.256 534.592 32.54 534.176 32.748C533.76 32.956 533.26 33.06 532.676 33.06C531.828 33.06 531.132 32.84 530.588 32.4C530.044 31.952 529.74 31.32 529.676 30.504H530.732C530.788 30.984 530.984 31.376 531.32 31.68C531.656 31.984 532.104 32.136 532.664 32.136C533.224 32.136 533.648 31.992 533.936 31.704C534.232 31.408 534.38 31.028 534.38 30.564C534.38 29.964 534.18 29.532 533.78 29.268C533.38 29.004 532.776 28.872 531.968 28.872H531.692V27.96H531.98C532.716 27.952 533.272 27.832 533.648 27.6C534.024 27.36 534.212 26.992 534.212 26.496C534.212 26.072 534.072 25.732 533.792 25.476C533.52 25.22 533.128 25.092 532.616 25.092C532.12 25.092 531.72 25.22 531.416 25.476C531.112 25.732 530.932 26.076 530.876 26.508H529.808ZM545.222 31.14H541.574L540.902 33H539.75L542.774 24.684H544.034L547.046 33H545.894L545.222 31.14ZM544.91 30.252L543.398 26.028L541.886 30.252H544.91ZM554.195 26.424V33H553.103V32.028C552.895 32.364 552.603 32.628 552.227 32.82C551.859 33.004 551.451 33.096 551.003 33.096C550.491 33.096 550.031 32.992 549.623 32.784C549.215 32.568 548.891 32.248 548.651 31.824C548.419 31.4 548.303 30.884 548.303 30.276V26.424H549.383V30.132C549.383 30.78 549.547 31.28 549.875 31.632C550.203 31.976 550.651 32.148 551.219 32.148C551.803 32.148 552.263 31.968 552.599 31.608C552.935 31.248 553.103 30.724 553.103 30.036V26.424H554.195ZM558.751 26.316C559.319 26.316 559.815 26.44 560.239 26.688C560.671 26.936 560.991 27.248 561.199 27.624V26.424H562.303V33.144C562.303 33.744 562.175 34.276 561.919 34.74C561.663 35.212 561.295 35.58 560.815 35.844C560.343 36.108 559.791 36.24 559.159 36.24C558.295 36.24 557.575 36.036 556.999 35.628C556.423 35.22 556.083 34.664 555.979 33.96H557.059C557.179 34.36 557.427 34.68 557.803 34.92C558.179 35.168 558.631 35.292 559.159 35.292C559.759 35.292 560.247 35.104 560.623 34.728C561.007 34.352 561.199 33.824 561.199 33.144V31.764C560.983 32.148 560.663 32.468 560.239 32.724C559.815 32.98 559.319 33.108 558.751 33.108C558.167 33.108 557.635 32.964 557.155 32.676C556.683 32.388 556.311 31.984 556.039 31.464C555.767 30.944 555.631 30.352 555.631 29.688C555.631 29.016 555.767 28.428 556.039 27.924C556.311 27.412 556.683 27.016 557.155 26.736C557.635 26.456 558.167 26.316 558.751 26.316ZM561.199 29.7C561.199 29.204 561.099 28.772 560.899 28.404C560.699 28.036 560.427 27.756 560.083 27.564C559.747 27.364 559.375 27.264 558.967 27.264C558.559 27.264 558.187 27.36 557.851 27.552C557.515 27.744 557.247 28.024 557.047 28.392C556.847 28.76 556.747 29.192 556.747 29.688C556.747 30.192 556.847 30.632 557.047 31.008C557.247 31.376 557.515 31.66 557.851 31.86C558.187 32.052 558.559 32.148 558.967 32.148C559.375 32.148 559.747 32.052 560.083 31.86C560.427 31.66 560.699 31.376 560.899 31.008C561.099 30.632 561.199 30.196 561.199 29.7ZM569.981 26.424V33H568.889V32.028C568.681 32.364 568.389 32.628 568.013 32.82C567.645 33.004 567.237 33.096 566.789 33.096C566.277 33.096 565.817 32.992 565.409 32.784C565.001 32.568 564.677 32.248 564.437 31.824C564.205 31.4 564.089 30.884 564.089 30.276V26.424H565.169V30.132C565.169 30.78 565.333 31.28 565.661 31.632C565.989 31.976 566.437 32.148 567.005 32.148C567.589 32.148 568.049 31.968 568.385 31.608C568.721 31.248 568.889 30.724 568.889 30.036V26.424H569.981ZM574.152 33.108C573.648 33.108 573.196 33.024 572.796 32.856C572.396 32.68 572.08 32.44 571.848 32.136C571.616 31.824 571.488 31.468 571.464 31.068H572.592C572.624 31.396 572.776 31.664 573.048 31.872C573.328 32.08 573.692 32.184 574.14 32.184C574.556 32.184 574.884 32.092 575.124 31.908C575.364 31.724 575.484 31.492 575.484 31.212C575.484 30.924 575.356 30.712 575.1 30.576C574.844 30.432 574.448 30.292 573.912 30.156C573.424 30.028 573.024 29.9 572.712 29.772C572.408 29.636 572.144 29.44 571.92 29.184C571.704 28.92 571.596 28.576 571.596 28.152C571.596 27.816 571.696 27.508 571.896 27.228C572.096 26.948 572.38 26.728 572.748 26.568C573.116 26.4 573.536 26.316 574.008 26.316C574.736 26.316 575.324 26.5 575.772 26.868C576.22 27.236 576.46 27.74 576.492 28.38H575.4C575.376 28.036 575.236 27.76 574.98 27.552C574.732 27.344 574.396 27.24 573.972 27.24C573.58 27.24 573.268 27.324 573.036 27.492C572.804 27.66 572.688 27.88 572.688 28.152C572.688 28.368 572.756 28.548 572.892 28.692C573.036 28.828 573.212 28.94 573.42 29.028C573.636 29.108 573.932 29.2 574.308 29.304C574.78 29.432 575.164 29.56 575.46 29.688C575.756 29.808 576.008 29.992 576.216 30.24C576.432 30.488 576.544 30.812 576.552 31.212C576.552 31.572 576.452 31.896 576.252 32.184C576.052 32.472 575.768 32.7 575.4 32.868C575.04 33.028 574.624 33.108 574.152 33.108ZM579.426 27.324V31.2C579.426 31.52 579.494 31.748 579.63 31.884C579.766 32.012 580.002 32.076 580.338 32.076H581.142V33H580.158C579.55 33 579.094 32.86 578.79 32.58C578.486 32.3 578.334 31.84 578.334 31.2V27.324H577.482V26.424H578.334V24.768H579.426V26.424H581.142V27.324H579.426Z" fill="#5C5C5C"/>
<path d="M511.324 60.208C512.86 58.928 514.084 57.864 514.996 57.016C515.908 56.152 516.668 55.256 517.276 54.328C517.884 53.4 518.188 52.488 518.188 51.592C518.188 50.776 517.996 50.136 517.612 49.672C517.228 49.208 516.636 48.976 515.836 48.976C515.036 48.976 514.42 49.248 513.988 49.792C513.556 50.32 513.332 51.048 513.316 51.976H510.052C510.116 50.056 510.684 48.6 511.756 47.608C512.844 46.616 514.22 46.12 515.884 46.12C517.708 46.12 519.108 46.608 520.084 47.584C521.06 48.544 521.548 49.816 521.548 51.4C521.548 52.648 521.212 53.84 520.54 54.976C519.868 56.112 519.1 57.104 518.236 57.952C517.372 58.784 516.244 59.792 514.852 60.976H521.932V63.76H510.076V61.264L511.324 60.208ZM525.105 60.208C526.641 58.928 527.865 57.864 528.777 57.016C529.689 56.152 530.449 55.256 531.057 54.328C531.665 53.4 531.969 52.488 531.969 51.592C531.969 50.776 531.777 50.136 531.393 49.672C531.009 49.208 530.417 48.976 529.617 48.976C528.817 48.976 528.201 49.248 527.769 49.792C527.337 50.32 527.113 51.048 527.097 51.976H523.833C523.897 50.056 524.465 48.6 525.537 47.608C526.625 46.616 528.001 46.12 529.665 46.12C531.489 46.12 532.889 46.608 533.865 47.584C534.841 48.544 535.329 49.816 535.329 51.4C535.329 52.648 534.993 53.84 534.321 54.976C533.649 56.112 532.881 57.104 532.017 57.952C531.153 58.784 530.025 59.792 528.633 60.976H535.713V63.76H523.857V61.264L525.105 60.208ZM549.591 49.408H541.815V53.512C542.151 53.096 542.631 52.76 543.255 52.504C543.879 52.232 544.543 52.096 545.247 52.096C546.527 52.096 547.575 52.376 548.391 52.936C549.207 53.496 549.799 54.216 550.167 55.096C550.535 55.96 550.719 56.888 550.719 57.88C550.719 59.72 550.191 61.2 549.135 62.32C548.095 63.44 546.607 64 544.671 64C542.847 64 541.391 63.544 540.303 62.632C539.215 61.72 538.599 60.528 538.455 59.056H541.719C541.863 59.696 542.183 60.208 542.679 60.592C543.191 60.976 543.839 61.168 544.623 61.168C545.567 61.168 546.279 60.872 546.759 60.28C547.239 59.688 547.479 58.904 547.479 57.928C547.479 56.936 547.231 56.184 546.735 55.672C546.255 55.144 545.543 54.88 544.599 54.88C543.927 54.88 543.367 55.048 542.919 55.384C542.471 55.72 542.151 56.168 541.959 56.728H538.743V46.456H549.591V49.408Z" fill="#181818"/>
<defs>
<filter id="filter0_dd_107_721" x="9.58397" y="64.0032" width="548.879" height="104.556" filterUnits="userSpaceOnUse" color-interpolation-filters="sRGB">
<feFlood flood-opacity="0" result="BackgroundImageFix"/>
<feColorMatrix in="SourceAlpha" type="matrix" values="0 0 0 0 0 0 0 0 0 0 0 0 0 0 0 0 0 0 127 0" result="hardAlpha"/>
<feOffset dy="12.8"/>
<feGaussianBlur stdDeviation="14.4"/>
<feColorMatrix type="matrix" values="0 0 0 0 0.176471 0 0 0 0 0.356863 0 0 0 0 1 0 0 0 0.22 0"/>
<feBlend mode="normal" in2="BackgroundImageFix" result="effect1_dropShadow_107_721"/>
<feColorMatrix in="SourceAlpha" type="matrix" values="0 0 0 0 0 0 0 0 0 0 0 0 0 0 0 0 0 0 127 0" result="hardAlpha"/>
<feOffset dy="2.4"/>
<feGaussianBlur stdDeviation="3.7"/>
<feColorMatrix type="matrix" values="0 0 0 0 0.176471 0 0 0 0 0.356863 0 0 0 0 1 0 0 0 0.24 0"/>
<feBlend mode="normal" in2="effect1_dropShadow_107_721" result="effect2_dropShadow_107_721"/>
<feBlend mode="normal" in="SourceGraphic" in2="effect2_dropShadow_107_721" result="shape"/>
</filter>
<filter id="filter1_dd_107_721" x="502.743" y="68" width="54.6571" height="52.8" filterUnits="userSpaceOnUse" color-interpolation-filters="sRGB">
<feFlood flood-opacity="0" result="BackgroundImageFix"/>
<feColorMatrix in="SourceAlpha" type="matrix" values="0 0 0 0 0 0 0 0 0 0 0 0 0 0 0 0 0 0 127 0" result="hardAlpha"/>
<feOffset dy="6.4"/>
<feGaussianBlur stdDeviation="7.2"/>
<feColorMatrix type="matrix" values="0 0 0 0 0 0 0 0 0 0 0 0 0 0 0 0 0 0 0.13 0"/>
<feBlend mode="normal" in2="BackgroundImageFix" result="effect1_dropShadow_107_721"/>
<feColorMatrix in="SourceAlpha" type="matrix" values="0 0 0 0 0 0 0 0 0 0 0 0 0 0 0 0 0 0 127 0" result="hardAlpha"/>
<feOffset dy="1.2"/>
<feGaussianBlur stdDeviation="1.8"/>
<feColorMatrix type="matrix" values="0 0 0 0 0 0 0 0 0 0 0 0 0 0 0 0 0 0 0.11 0"/>
<feBlend mode="normal" in2="effect1_dropShadow_107_721" result="effect2_dropShadow_107_721"/>
<feBlend mode="normal" in="SourceGraphic" in2="effect2_dropShadow_107_721" result="shape"/>
</filter>
<filter id="filter2_dd_107_721" x="434" y="0" width="192" height="112" filterUnits="userSpaceOnUse" color-interpolation-filters="sRGB">
<feFlood flood-opacity="0" result="BackgroundImageFix"/>
<feColorMatrix in="SourceAlpha" type="matrix" values="0 0 0 0 0 0 0 0 0 0 0 0 0 0 0 0 0 0 127 0" result="hardAlpha"/>
<feOffset dy="8"/>
<feGaussianBlur stdDeviation="8"/>
<feColorMatrix type="matrix" values="0 0 0 0 0.196487 0 0 0 0 0.196487 0 0 0 0 0.279476 0 0 0 0.06 0"/>
<feBlend mode="multiply" in2="BackgroundImageFix" result="effect1_dropShadow_107_721"/>
<feColorMatrix in="SourceAlpha" type="matrix" values="0 0 0 0 0 0 0 0 0 0 0 0 0 0 0 0 0 0 127 0" result="hardAlpha"/>
<feOffset dy="8"/>
<feGaussianBlur stdDeviation="4"/>
<feColorMatrix type="matrix" values="0 0 0 0 0.196487 0 0 0 0 0.196487 0 0 0 0 0.279476 0 0 0 0.08 0"/>
<feBlend mode="multiply" in2="effect1_dropShadow_107_721" result="effect2_dropShadow_107_721"/>
<feBlend mode="normal" in="SourceGraphic" in2="effect2_dropShadow_107_721" result="shape"/>
</filter>
</defs>
</svg>
