<svg
            width="282"
            height="168"
            viewBox="0 0 282 168"
            fill="none"
            xmlns="http://www.w3.org/2000/svg"
          >
            <circle cx="168" cy="66" r="8" fill="#2D5BFF" />
            <path
              d="M188.368 61.696H182.752V65.344C182.997 65.0027 183.36 64.7253 183.84 64.512C184.32 64.288 184.837 64.176 185.392 64.176C186.277 64.176 186.997 64.3627 187.552 64.736C188.107 65.0987 188.501 65.5733 188.736 66.16C188.981 66.736 189.104 67.3493 189.104 68C189.104 68.768 188.96 69.456 188.672 70.064C188.384 70.672 187.941 71.152 187.344 71.504C186.757 71.856 186.027 72.032 185.152 72.032C184.032 72.032 183.125 71.744 182.432 71.168C181.739 70.592 181.317 69.824 181.168 68.864H182.592C182.731 69.472 183.024 69.9467 183.472 70.288C183.92 70.6293 184.485 70.8 185.168 70.8C186.011 70.8 186.645 70.5493 187.072 70.048C187.499 69.536 187.712 68.864 187.712 68.032C187.712 67.2 187.499 66.56 187.072 66.112C186.645 65.6533 186.016 65.424 185.184 65.424C184.619 65.424 184.123 65.5627 183.696 65.84C183.28 66.1067 182.976 66.4747 182.784 66.944H181.408V60.416H188.368V61.696ZM191.039 66.096C191.039 64.2613 191.338 62.832 191.935 61.808C192.532 60.7733 193.578 60.256 195.071 60.256C196.554 60.256 197.594 60.7733 198.191 61.808C198.788 62.832 199.087 64.2613 199.087 66.096C199.087 67.9627 198.788 69.4133 198.191 70.448C197.594 71.4827 196.554 72 195.071 72C193.578 72 192.532 71.4827 191.935 70.448C191.338 69.4133 191.039 67.9627 191.039 66.096ZM197.647 66.096C197.647 65.168 197.583 64.384 197.455 63.744C197.338 63.0933 197.087 62.5707 196.703 62.176C196.33 61.7813 195.786 61.584 195.071 61.584C194.346 61.584 193.791 61.7813 193.407 62.176C193.034 62.5707 192.783 63.0933 192.655 63.744C192.538 64.384 192.479 65.168 192.479 66.096C192.479 67.056 192.538 67.8613 192.655 68.512C192.783 69.1627 193.034 69.6853 193.407 70.08C193.791 70.4747 194.346 70.672 195.071 70.672C195.786 70.672 196.33 70.4747 196.703 70.08C197.087 69.6853 197.338 69.1627 197.455 68.512C197.583 67.8613 197.647 67.056 197.647 66.096ZM200.766 63.04C200.766 62.3147 200.984 61.7387 201.422 61.312C201.859 60.8747 202.419 60.656 203.102 60.656C203.784 60.656 204.344 60.8747 204.782 61.312C205.219 61.7387 205.438 62.3147 205.438 63.04C205.438 63.776 205.219 64.3627 204.782 64.8C204.344 65.2267 203.784 65.44 203.102 65.44C202.419 65.44 201.859 65.2267 201.422 64.8C200.984 64.3627 200.766 63.776 200.766 63.04ZM210.11 60.832L203.63 72H202.19L208.67 60.832H210.11ZM203.102 61.552C202.739 61.552 202.451 61.68 202.238 61.936C202.035 62.1813 201.934 62.5493 201.934 63.04C201.934 63.5307 202.035 63.904 202.238 64.16C202.451 64.416 202.739 64.544 203.102 64.544C203.464 64.544 203.752 64.416 203.966 64.16C204.179 63.8933 204.286 63.52 204.286 63.04C204.286 62.5493 204.179 62.1813 203.966 61.936C203.752 61.68 203.464 61.552 203.102 61.552ZM206.894 69.792C206.894 69.056 207.112 68.4747 207.55 68.048C207.987 67.6107 208.547 67.392 209.23 67.392C209.912 67.392 210.467 67.6107 210.894 68.048C211.331 68.4747 211.55 69.056 211.55 69.792C211.55 70.5173 211.331 71.0987 210.894 71.536C210.467 71.9733 209.912 72.192 209.23 72.192C208.547 72.192 207.987 71.9787 207.55 71.552C207.112 71.1147 206.894 70.528 206.894 69.792ZM209.214 68.304C208.851 68.304 208.563 68.432 208.35 68.688C208.136 68.9333 208.03 69.3013 208.03 69.792C208.03 70.272 208.136 70.64 208.35 70.896C208.563 71.1413 208.851 71.264 209.214 71.264C209.576 71.264 209.864 71.1413 210.078 70.896C210.291 70.64 210.398 70.272 210.398 69.792C210.398 69.3013 210.291 68.9333 210.078 68.688C209.864 68.432 209.576 68.304 209.214 68.304ZM221.204 60.848C222.42 60.848 223.471 61.0773 224.356 61.536C225.252 61.984 225.935 62.6293 226.404 63.472C226.884 64.3147 227.124 65.3067 227.124 66.448C227.124 67.5893 226.884 68.5813 226.404 69.424C225.935 70.256 225.252 70.896 224.356 71.344C223.471 71.7813 222.42 72 221.204 72H217.732V60.848H221.204ZM221.204 70.8C222.644 70.8 223.743 70.4213 224.5 69.664C225.257 68.896 225.636 67.824 225.636 66.448C225.636 65.0613 225.252 63.9787 224.484 63.2C223.727 62.4213 222.633 62.032 221.204 62.032H219.188V70.8H221.204ZM237.045 67.28C237.045 67.5573 237.029 67.8507 236.997 68.16H229.989C230.042 69.024 230.335 69.7013 230.869 70.192C231.413 70.672 232.069 70.912 232.837 70.912C233.466 70.912 233.989 70.768 234.405 70.48C234.831 70.1813 235.13 69.7867 235.301 69.296H236.869C236.634 70.1387 236.165 70.8267 235.461 71.36C234.757 71.8827 233.882 72.144 232.837 72.144C232.005 72.144 231.258 71.9573 230.597 71.584C229.946 71.2107 229.434 70.6827 229.061 70C228.687 69.3067 228.501 68.5067 228.501 67.6C228.501 66.6933 228.682 65.8987 229.045 65.216C229.407 64.5333 229.914 64.0107 230.565 63.648C231.226 63.2747 231.983 63.088 232.837 63.088C233.669 63.088 234.405 63.2693 235.045 63.632C235.685 63.9947 236.175 64.496 236.517 65.136C236.869 65.7653 237.045 66.48 237.045 67.28ZM235.541 66.976C235.541 66.4213 235.418 65.9467 235.173 65.552C234.927 65.1467 234.591 64.8427 234.165 64.64C233.749 64.4267 233.285 64.32 232.773 64.32C232.037 64.32 231.407 64.5547 230.885 65.024C230.373 65.4933 230.079 66.144 230.005 66.976H235.541ZM242.07 72.144C241.398 72.144 240.796 72.032 240.262 71.808C239.729 71.5733 239.308 71.2533 238.998 70.848C238.689 70.432 238.518 69.9573 238.486 69.424H239.99C240.033 69.8613 240.236 70.2187 240.598 70.496C240.972 70.7733 241.457 70.912 242.054 70.912C242.609 70.912 243.046 70.7893 243.366 70.544C243.686 70.2987 243.846 69.9893 243.846 69.616C243.846 69.232 243.676 68.9493 243.334 68.768C242.993 68.576 242.465 68.3893 241.75 68.208C241.1 68.0373 240.566 67.8667 240.15 67.696C239.745 67.5147 239.393 67.2533 239.094 66.912C238.806 66.56 238.662 66.1013 238.662 65.536C238.662 65.088 238.796 64.6773 239.062 64.304C239.329 63.9307 239.708 63.6373 240.198 63.424C240.689 63.2 241.249 63.088 241.878 63.088C242.849 63.088 243.633 63.3333 244.23 63.824C244.828 64.3147 245.148 64.9867 245.19 65.84H243.734C243.702 65.3813 243.516 65.0133 243.174 64.736C242.844 64.4587 242.396 64.32 241.83 64.32C241.308 64.32 240.892 64.432 240.582 64.656C240.273 64.88 240.118 65.1733 240.118 65.536C240.118 65.824 240.209 66.064 240.39 66.256C240.582 66.4373 240.817 66.5867 241.094 66.704C241.382 66.8107 241.777 66.9333 242.278 67.072C242.908 67.2427 243.42 67.4133 243.814 67.584C244.209 67.744 244.545 67.9893 244.822 68.32C245.11 68.6507 245.26 69.0827 245.27 69.616C245.27 70.096 245.137 70.528 244.87 70.912C244.604 71.296 244.225 71.6 243.734 71.824C243.254 72.0373 242.7 72.144 242.07 72.144ZM252.222 72L248.782 68.128V72H247.326V60.16H248.782V67.12L252.158 63.232H254.19L250.062 67.6L254.206 72H252.222ZM257.336 64.432V69.6C257.336 70.0267 257.427 70.3307 257.608 70.512C257.789 70.6827 258.104 70.768 258.552 70.768H259.624V72H258.312C257.501 72 256.893 71.8133 256.488 71.44C256.083 71.0667 255.88 70.4533 255.88 69.6V64.432H254.744V63.232H255.88V61.024H257.336V63.232H259.624V64.432H257.336ZM265.212 72.144C264.391 72.144 263.644 71.9573 262.972 71.584C262.311 71.2107 261.788 70.6827 261.404 70C261.031 69.3067 260.844 68.5067 260.844 67.6C260.844 66.704 261.036 65.9147 261.42 65.232C261.815 64.5387 262.348 64.0107 263.02 63.648C263.692 63.2747 264.444 63.088 265.276 63.088C266.108 63.088 266.86 63.2747 267.532 63.648C268.204 64.0107 268.732 64.5333 269.116 65.216C269.511 65.8987 269.708 66.6933 269.708 67.6C269.708 68.5067 269.506 69.3067 269.1 70C268.706 70.6827 268.167 71.2107 267.484 71.584C266.802 71.9573 266.044 72.144 265.212 72.144ZM265.212 70.864C265.735 70.864 266.226 70.7413 266.684 70.496C267.143 70.2507 267.511 69.8827 267.788 69.392C268.076 68.9013 268.22 68.304 268.22 67.6C268.22 66.896 268.082 66.2987 267.804 65.808C267.527 65.3173 267.164 64.9547 266.716 64.72C266.268 64.4747 265.783 64.352 265.26 64.352C264.727 64.352 264.236 64.4747 263.788 64.72C263.351 64.9547 262.999 65.3173 262.732 65.808C262.466 66.2987 262.332 66.896 262.332 67.6C262.332 68.3147 262.46 68.9173 262.716 69.408C262.983 69.8987 263.335 70.2667 263.772 70.512C264.21 70.7467 264.69 70.864 265.212 70.864ZM273.079 64.848C273.367 64.3467 273.793 63.9307 274.359 63.6C274.935 63.2587 275.601 63.088 276.359 63.088C277.137 63.088 277.841 63.2747 278.471 63.648C279.111 64.0213 279.612 64.5493 279.975 65.232C280.337 65.904 280.519 66.688 280.519 67.584C280.519 68.4693 280.337 69.2587 279.975 69.952C279.612 70.6453 279.111 71.184 278.471 71.568C277.841 71.952 277.137 72.144 276.359 72.144C275.612 72.144 274.951 71.9787 274.375 71.648C273.809 71.3067 273.377 70.8853 273.079 70.384V76.16H271.623V63.232H273.079V64.848ZM279.031 67.584C279.031 66.9227 278.897 66.3467 278.631 65.856C278.364 65.3653 278.001 64.992 277.543 64.736C277.095 64.48 276.599 64.352 276.055 64.352C275.521 64.352 275.025 64.4853 274.567 64.752C274.119 65.008 273.756 65.3867 273.479 65.888C273.212 66.3787 273.079 66.9493 273.079 67.6C273.079 68.2613 273.212 68.8427 273.479 69.344C273.756 69.8347 274.119 70.2133 274.567 70.48C275.025 70.736 275.521 70.864 276.055 70.864C276.599 70.864 277.095 70.736 277.543 70.48C278.001 70.2133 278.364 69.8347 278.631 69.344C278.897 68.8427 279.031 68.256 279.031 67.584Z"
              fill="#181818"
            />
            <circle cx="168" cy="98" r="8" fill="#6284FD" />
            <path
              d="M180.816 102.832C182.171 101.744 183.232 100.853 184 100.16C184.768 99.456 185.413 98.7253 185.936 97.968C186.469 97.2 186.736 96.448 186.736 95.712C186.736 95.0187 186.565 94.4747 186.224 94.08C185.893 93.6747 185.355 93.472 184.608 93.472C183.883 93.472 183.317 93.7013 182.912 94.16C182.517 94.608 182.304 95.2107 182.272 95.968H180.864C180.907 94.7733 181.269 93.8507 181.952 93.2C182.635 92.5493 183.515 92.224 184.592 92.224C185.691 92.224 186.56 92.528 187.2 93.136C187.851 93.744 188.176 94.5813 188.176 95.648C188.176 96.5333 187.909 97.3973 187.376 98.24C186.853 99.072 186.256 99.808 185.584 100.448C184.912 101.077 184.053 101.813 183.008 102.656H188.512V103.872H180.816V102.832ZM197.571 93.696H191.955V97.344C192.2 97.0027 192.563 96.7253 193.043 96.512C193.523 96.288 194.04 96.176 194.595 96.176C195.48 96.176 196.2 96.3627 196.755 96.736C197.31 97.0987 197.704 97.5733 197.939 98.16C198.184 98.736 198.307 99.3493 198.307 100C198.307 100.768 198.163 101.456 197.875 102.064C197.587 102.672 197.144 103.152 196.547 103.504C195.96 103.856 195.23 104.032 194.355 104.032C193.235 104.032 192.328 103.744 191.635 103.168C190.942 102.592 190.52 101.824 190.371 100.864H191.795C191.934 101.472 192.227 101.947 192.675 102.288C193.123 102.629 193.688 102.8 194.371 102.8C195.214 102.8 195.848 102.549 196.275 102.048C196.702 101.536 196.915 100.864 196.915 100.032C196.915 99.2 196.702 98.56 196.275 98.112C195.848 97.6533 195.219 97.424 194.387 97.424C193.822 97.424 193.326 97.5627 192.899 97.84C192.483 98.1067 192.179 98.4747 191.987 98.944H190.611V92.416H197.571V93.696ZM199.922 95.04C199.922 94.3147 200.141 93.7387 200.578 93.312C201.015 92.8747 201.575 92.656 202.258 92.656C202.941 92.656 203.501 92.8747 203.938 93.312C204.375 93.7387 204.594 94.3147 204.594 95.04C204.594 95.776 204.375 96.3627 203.938 96.8C203.501 97.2267 202.941 97.44 202.258 97.44C201.575 97.44 201.015 97.2267 200.578 96.8C200.141 96.3627 199.922 95.776 199.922 95.04ZM209.266 92.832L202.786 104H201.346L207.826 92.832H209.266ZM202.258 93.552C201.895 93.552 201.607 93.68 201.394 93.936C201.191 94.1813 201.09 94.5493 201.09 95.04C201.09 95.5307 201.191 95.904 201.394 96.16C201.607 96.416 201.895 96.544 202.258 96.544C202.621 96.544 202.909 96.416 203.122 96.16C203.335 95.8933 203.442 95.52 203.442 95.04C203.442 94.5493 203.335 94.1813 203.122 93.936C202.909 93.68 202.621 93.552 202.258 93.552ZM206.05 101.792C206.05 101.056 206.269 100.475 206.706 100.048C207.143 99.6107 207.703 99.392 208.386 99.392C209.069 99.392 209.623 99.6107 210.05 100.048C210.487 100.475 210.706 101.056 210.706 101.792C210.706 102.517 210.487 103.099 210.05 103.536C209.623 103.973 209.069 104.192 208.386 104.192C207.703 104.192 207.143 103.979 206.706 103.552C206.269 103.115 206.05 102.528 206.05 101.792ZM208.37 100.304C208.007 100.304 207.719 100.432 207.506 100.688C207.293 100.933 207.186 101.301 207.186 101.792C207.186 102.272 207.293 102.64 207.506 102.896C207.719 103.141 208.007 103.264 208.37 103.264C208.733 103.264 209.021 103.141 209.234 102.896C209.447 102.64 209.554 102.272 209.554 101.792C209.554 101.301 209.447 100.933 209.234 100.688C209.021 100.432 208.733 100.304 208.37 100.304ZM228.2 92.928V104H226.744V95.744L223.064 104H222.04L218.344 95.728V104H216.888V92.928H218.456L222.552 102.08L226.648 92.928H228.2ZM234.494 104.144C233.672 104.144 232.926 103.957 232.254 103.584C231.592 103.211 231.07 102.683 230.686 102C230.312 101.307 230.126 100.507 230.126 99.6C230.126 98.704 230.318 97.9147 230.702 97.232C231.096 96.5387 231.63 96.0107 232.302 95.648C232.974 95.2747 233.726 95.088 234.558 95.088C235.39 95.088 236.142 95.2747 236.814 95.648C237.486 96.0107 238.014 96.5333 238.398 97.216C238.792 97.8987 238.99 98.6933 238.99 99.6C238.99 100.507 238.787 101.307 238.382 102C237.987 102.683 237.448 103.211 236.766 103.584C236.083 103.957 235.326 104.144 234.494 104.144ZM234.494 102.864C235.016 102.864 235.507 102.741 235.966 102.496C236.424 102.251 236.792 101.883 237.07 101.392C237.358 100.901 237.502 100.304 237.502 99.6C237.502 98.896 237.363 98.2987 237.086 97.808C236.808 97.3173 236.446 96.9547 235.998 96.72C235.55 96.4747 235.064 96.352 234.542 96.352C234.008 96.352 233.518 96.4747 233.07 96.72C232.632 96.9547 232.28 97.3173 232.014 97.808C231.747 98.2987 231.614 98.896 231.614 99.6C231.614 100.315 231.742 100.917 231.998 101.408C232.264 101.899 232.616 102.267 233.054 102.512C233.491 102.747 233.971 102.864 234.494 102.864ZM242.36 96.864C242.659 96.3413 243.096 95.9147 243.672 95.584C244.248 95.2533 244.904 95.088 245.64 95.088C246.429 95.088 247.139 95.2747 247.768 95.648C248.397 96.0213 248.893 96.5493 249.256 97.232C249.619 97.904 249.8 98.688 249.8 99.584C249.8 100.469 249.619 101.259 249.256 101.952C248.893 102.645 248.392 103.184 247.752 103.568C247.123 103.952 246.419 104.144 245.64 104.144C244.883 104.144 244.216 103.979 243.64 103.648C243.075 103.317 242.648 102.896 242.36 102.384V104H240.904V92.16H242.36V96.864ZM248.312 99.584C248.312 98.9227 248.179 98.3467 247.912 97.856C247.645 97.3653 247.283 96.992 246.824 96.736C246.376 96.48 245.88 96.352 245.336 96.352C244.803 96.352 244.307 96.4853 243.848 96.752C243.4 97.008 243.037 97.3867 242.76 97.888C242.493 98.3787 242.36 98.9493 242.36 99.6C242.36 100.261 242.493 100.843 242.76 101.344C243.037 101.835 243.4 102.213 243.848 102.48C244.307 102.736 244.803 102.864 245.336 102.864C245.88 102.864 246.376 102.736 246.824 102.48C247.283 102.213 247.645 101.835 247.912 101.344C248.179 100.843 248.312 100.256 248.312 99.584ZM252.468 93.808C252.191 93.808 251.956 93.712 251.764 93.52C251.572 93.328 251.476 93.0933 251.476 92.816C251.476 92.5387 251.572 92.304 251.764 92.112C251.956 91.92 252.191 91.824 252.468 91.824C252.735 91.824 252.959 91.92 253.14 92.112C253.332 92.304 253.428 92.5387 253.428 92.816C253.428 93.0933 253.332 93.328 253.14 93.52C252.959 93.712 252.735 93.808 252.468 93.808ZM253.172 95.232V104H251.716V95.232H253.172ZM257.11 92.16V104H255.654V92.16H257.11ZM267.591 99.28C267.591 99.5573 267.575 99.8507 267.543 100.16H260.535C260.589 101.024 260.882 101.701 261.415 102.192C261.959 102.672 262.615 102.912 263.383 102.912C264.013 102.912 264.535 102.768 264.951 102.48C265.378 102.181 265.677 101.787 265.847 101.296H267.415C267.181 102.139 266.711 102.827 266.007 103.36C265.303 103.883 264.429 104.144 263.383 104.144C262.551 104.144 261.805 103.957 261.143 103.584C260.493 103.211 259.981 102.683 259.607 102C259.234 101.307 259.047 100.507 259.047 99.6C259.047 98.6933 259.229 97.8987 259.591 97.216C259.954 96.5333 260.461 96.0107 261.111 95.648C261.773 95.2747 262.53 95.088 263.383 95.088C264.215 95.088 264.951 95.2693 265.591 95.632C266.231 95.9947 266.722 96.496 267.063 97.136C267.415 97.7653 267.591 98.48 267.591 99.28ZM266.087 98.976C266.087 98.4213 265.965 97.9467 265.719 97.552C265.474 97.1467 265.138 96.8427 264.711 96.64C264.295 96.4267 263.831 96.32 263.319 96.32C262.583 96.32 261.954 96.5547 261.431 97.024C260.919 97.4933 260.626 98.144 260.551 98.976H266.087Z"
              fill="#181818"
            />
            <circle cx="168" cy="130" r="8" fill="#96ADFF" />
            <path
              d="M180.816 134.832C182.171 133.744 183.232 132.853 184 132.16C184.768 131.456 185.413 130.725 185.936 129.968C186.469 129.2 186.736 128.448 186.736 127.712C186.736 127.019 186.565 126.475 186.224 126.08C185.893 125.675 185.355 125.472 184.608 125.472C183.883 125.472 183.317 125.701 182.912 126.16C182.517 126.608 182.304 127.211 182.272 127.968H180.864C180.907 126.773 181.269 125.851 181.952 125.2C182.635 124.549 183.515 124.224 184.592 124.224C185.691 124.224 186.56 124.528 187.2 125.136C187.851 125.744 188.176 126.581 188.176 127.648C188.176 128.533 187.909 129.397 187.376 130.24C186.853 131.072 186.256 131.808 185.584 132.448C184.912 133.077 184.053 133.813 183.008 134.656H188.512V135.872H180.816V134.832ZM197.571 125.696H191.955V129.344C192.2 129.003 192.563 128.725 193.043 128.512C193.523 128.288 194.04 128.176 194.595 128.176C195.48 128.176 196.2 128.363 196.755 128.736C197.31 129.099 197.704 129.573 197.939 130.16C198.184 130.736 198.307 131.349 198.307 132C198.307 132.768 198.163 133.456 197.875 134.064C197.587 134.672 197.144 135.152 196.547 135.504C195.96 135.856 195.23 136.032 194.355 136.032C193.235 136.032 192.328 135.744 191.635 135.168C190.942 134.592 190.52 133.824 190.371 132.864H191.795C191.934 133.472 192.227 133.947 192.675 134.288C193.123 134.629 193.688 134.8 194.371 134.8C195.214 134.8 195.848 134.549 196.275 134.048C196.702 133.536 196.915 132.864 196.915 132.032C196.915 131.2 196.702 130.56 196.275 130.112C195.848 129.653 195.219 129.424 194.387 129.424C193.822 129.424 193.326 129.563 192.899 129.84C192.483 130.107 192.179 130.475 191.987 130.944H190.611V124.416H197.571V125.696ZM199.922 127.04C199.922 126.315 200.141 125.739 200.578 125.312C201.015 124.875 201.575 124.656 202.258 124.656C202.941 124.656 203.501 124.875 203.938 125.312C204.375 125.739 204.594 126.315 204.594 127.04C204.594 127.776 204.375 128.363 203.938 128.8C203.501 129.227 202.941 129.44 202.258 129.44C201.575 129.44 201.015 129.227 200.578 128.8C200.141 128.363 199.922 127.776 199.922 127.04ZM209.266 124.832L202.786 136H201.346L207.826 124.832H209.266ZM202.258 125.552C201.895 125.552 201.607 125.68 201.394 125.936C201.191 126.181 201.09 126.549 201.09 127.04C201.09 127.531 201.191 127.904 201.394 128.16C201.607 128.416 201.895 128.544 202.258 128.544C202.621 128.544 202.909 128.416 203.122 128.16C203.335 127.893 203.442 127.52 203.442 127.04C203.442 126.549 203.335 126.181 203.122 125.936C202.909 125.68 202.621 125.552 202.258 125.552ZM206.05 133.792C206.05 133.056 206.269 132.475 206.706 132.048C207.143 131.611 207.703 131.392 208.386 131.392C209.069 131.392 209.623 131.611 210.05 132.048C210.487 132.475 210.706 133.056 210.706 133.792C210.706 134.517 210.487 135.099 210.05 135.536C209.623 135.973 209.069 136.192 208.386 136.192C207.703 136.192 207.143 135.979 206.706 135.552C206.269 135.115 206.05 134.528 206.05 133.792ZM208.37 132.304C208.007 132.304 207.719 132.432 207.506 132.688C207.293 132.933 207.186 133.301 207.186 133.792C207.186 134.272 207.293 134.64 207.506 134.896C207.719 135.141 208.007 135.264 208.37 135.264C208.733 135.264 209.021 135.141 209.234 134.896C209.447 134.64 209.554 134.272 209.554 133.792C209.554 133.301 209.447 132.933 209.234 132.688C209.021 132.432 208.733 132.304 208.37 132.304ZM221.944 136.112C220.91 136.112 219.966 135.872 219.112 135.392C218.259 134.901 217.582 134.224 217.08 133.36C216.59 132.485 216.344 131.504 216.344 130.416C216.344 129.328 216.59 128.352 217.08 127.488C217.582 126.613 218.259 125.936 219.112 125.456C219.966 124.965 220.91 124.72 221.944 124.72C222.99 124.72 223.939 124.965 224.792 125.456C225.646 125.936 226.318 126.608 226.808 127.472C227.299 128.336 227.544 129.317 227.544 130.416C227.544 131.515 227.299 132.496 226.808 133.36C226.318 134.224 225.646 134.901 224.792 135.392C223.939 135.872 222.99 136.112 221.944 136.112ZM221.944 134.848C222.723 134.848 223.422 134.667 224.04 134.304C224.67 133.941 225.16 133.424 225.512 132.752C225.875 132.08 226.056 131.301 226.056 130.416C226.056 129.52 225.875 128.741 225.512 128.08C225.16 127.408 224.675 126.891 224.056 126.528C223.438 126.165 222.734 125.984 221.944 125.984C221.155 125.984 220.451 126.165 219.832 126.528C219.214 126.891 218.723 127.408 218.36 128.08C218.008 128.741 217.832 129.52 217.832 130.416C217.832 131.301 218.008 132.08 218.36 132.752C218.723 133.424 219.214 133.941 219.832 134.304C220.462 134.667 221.166 134.848 221.944 134.848ZM231.242 128.432V133.6C231.242 134.027 231.333 134.331 231.514 134.512C231.696 134.683 232.01 134.768 232.458 134.768H233.53V136H232.218C231.408 136 230.8 135.813 230.394 135.44C229.989 135.067 229.786 134.453 229.786 133.6V128.432H228.65V127.232H229.786V125.024H231.242V127.232H233.53V128.432H231.242ZM239.647 127.072C240.308 127.072 240.905 127.216 241.439 127.504C241.972 127.781 242.388 128.203 242.687 128.768C242.996 129.333 243.151 130.021 243.151 130.832V136H241.711V131.04C241.711 130.165 241.492 129.499 241.055 129.04C240.617 128.571 240.02 128.336 239.263 128.336C238.495 128.336 237.881 128.576 237.423 129.056C236.975 129.536 236.751 130.235 236.751 131.152V136H235.295V124.16H236.751V128.48C237.039 128.032 237.433 127.685 237.935 127.44C238.447 127.195 239.017 127.072 239.647 127.072ZM253.529 131.28C253.529 131.557 253.513 131.851 253.481 132.16H246.473C246.526 133.024 246.82 133.701 247.353 134.192C247.897 134.672 248.553 134.912 249.321 134.912C249.95 134.912 250.473 134.768 250.889 134.48C251.316 134.181 251.614 133.787 251.785 133.296H253.353C253.118 134.139 252.649 134.827 251.945 135.36C251.241 135.883 250.366 136.144 249.321 136.144C248.489 136.144 247.742 135.957 247.081 135.584C246.43 135.211 245.918 134.683 245.545 134C245.172 133.307 244.985 132.507 244.985 131.6C244.985 130.693 245.166 129.899 245.529 129.216C245.892 128.533 246.398 128.011 247.049 127.648C247.71 127.275 248.468 127.088 249.321 127.088C250.153 127.088 250.889 127.269 251.529 127.632C252.169 127.995 252.66 128.496 253.001 129.136C253.353 129.765 253.529 130.48 253.529 131.28ZM252.025 130.976C252.025 130.421 251.902 129.947 251.657 129.552C251.412 129.147 251.076 128.843 250.649 128.64C250.233 128.427 249.769 128.32 249.257 128.32C248.521 128.32 247.892 128.555 247.369 129.024C246.857 129.493 246.564 130.144 246.489 130.976H252.025ZM256.907 128.656C257.163 128.155 257.525 127.765 257.995 127.488C258.475 127.211 259.056 127.072 259.739 127.072V128.576H259.355C257.723 128.576 256.907 129.461 256.907 131.232V136H255.451V127.232H256.907V128.656ZM264.524 136.144C263.852 136.144 263.249 136.032 262.716 135.808C262.182 135.573 261.761 135.253 261.452 134.848C261.142 134.432 260.972 133.957 260.94 133.424H262.444C262.486 133.861 262.689 134.219 263.052 134.496C263.425 134.773 263.91 134.912 264.508 134.912C265.062 134.912 265.5 134.789 265.82 134.544C266.14 134.299 266.3 133.989 266.3 133.616C266.3 133.232 266.129 132.949 265.788 132.768C265.446 132.576 264.918 132.389 264.204 132.208C263.553 132.037 263.02 131.867 262.604 131.696C262.198 131.515 261.846 131.253 261.548 130.912C261.26 130.56 261.116 130.101 261.116 129.536C261.116 129.088 261.249 128.677 261.516 128.304C261.782 127.931 262.161 127.637 262.652 127.424C263.142 127.2 263.702 127.088 264.332 127.088C265.302 127.088 266.086 127.333 266.684 127.824C267.281 128.315 267.601 128.987 267.644 129.84H266.188C266.156 129.381 265.969 129.013 265.628 128.736C265.297 128.459 264.849 128.32 264.284 128.32C263.761 128.32 263.345 128.432 263.036 128.656C262.726 128.88 262.572 129.173 262.572 129.536C262.572 129.824 262.662 130.064 262.844 130.256C263.036 130.437 263.27 130.587 263.548 130.704C263.836 130.811 264.23 130.933 264.732 131.072C265.361 131.243 265.873 131.413 266.268 131.584C266.662 131.744 266.998 131.989 267.276 132.32C267.564 132.651 267.713 133.083 267.724 133.616C267.724 134.096 267.59 134.528 267.324 134.912C267.057 135.296 266.678 135.6 266.188 135.824C265.708 136.037 265.153 136.144 264.524 136.144Z"
              fill="#181818"
            />
            <path
              d="M7.824 15.52H2.96L2.064 18H0.528L4.56 6.912H6.24L10.256 18H8.72L7.824 15.52ZM7.408 14.336L5.392 8.704L3.376 14.336H7.408ZM11.4693 13.6C11.4693 12.6933 11.6506 11.904 12.0133 11.232C12.3759 10.5493 12.8773 10.0213 13.5173 9.648C14.1679 9.27467 14.9093 9.088 15.7413 9.088C16.8186 9.088 17.7039 9.34933 18.3973 9.872C19.1013 10.3947 19.5653 11.12 19.7893 12.048H18.2213C18.0719 11.5147 17.7786 11.0933 17.3413 10.784C16.9146 10.4747 16.3813 10.32 15.7413 10.32C14.9093 10.32 14.2373 10.608 13.7253 11.184C13.2133 11.7493 12.9573 12.5547 12.9573 13.6C12.9573 14.656 13.2133 15.472 13.7253 16.048C14.2373 16.624 14.9093 16.912 15.7413 16.912C16.3813 16.912 16.9146 16.7627 17.3413 16.464C17.7679 16.1653 18.0613 15.7387 18.2213 15.184H19.7893C19.5546 16.08 19.0853 16.8 18.3813 17.344C17.6773 17.8773 16.7973 18.144 15.7413 18.144C14.9093 18.144 14.1679 17.9573 13.5173 17.584C12.8773 17.2107 12.3759 16.6827 12.0133 16C11.6506 15.3173 11.4693 14.5173 11.4693 13.6ZM21.188 13.6C21.188 12.6933 21.3693 11.904 21.732 11.232C22.0947 10.5493 22.596 10.0213 23.236 9.648C23.8867 9.27467 24.628 9.088 25.46 9.088C26.5373 9.088 27.4227 9.34933 28.116 9.872C28.82 10.3947 29.284 11.12 29.508 12.048H27.94C27.7907 11.5147 27.4973 11.0933 27.06 10.784C26.6333 10.4747 26.1 10.32 25.46 10.32C24.628 10.32 23.956 10.608 23.444 11.184C22.932 11.7493 22.676 12.5547 22.676 13.6C22.676 14.656 22.932 15.472 23.444 16.048C23.956 16.624 24.628 16.912 25.46 16.912C26.1 16.912 26.6333 16.7627 27.06 16.464C27.4867 16.1653 27.78 15.7387 27.94 15.184H29.508C29.2733 16.08 28.804 16.8 28.1 17.344C27.396 17.8773 26.516 18.144 25.46 18.144C24.628 18.144 23.8867 17.9573 23.236 17.584C22.596 17.2107 22.0947 16.6827 21.732 16C21.3693 15.3173 21.188 14.5173 21.188 13.6ZM39.4508 13.28C39.4508 13.5573 39.4348 13.8507 39.4028 14.16H32.3948C32.4481 15.024 32.7414 15.7013 33.2748 16.192C33.8188 16.672 34.4748 16.912 35.2428 16.912C35.8721 16.912 36.3948 16.768 36.8108 16.48C37.2374 16.1813 37.5361 15.7867 37.7068 15.296H39.2748C39.0401 16.1387 38.5708 16.8267 37.8668 17.36C37.1628 17.8827 36.2881 18.144 35.2428 18.144C34.4108 18.144 33.6641 17.9573 33.0028 17.584C32.3521 17.2107 31.8401 16.6827 31.4668 16C31.0934 15.3067 30.9068 14.5067 30.9068 13.6C30.9068 12.6933 31.0881 11.8987 31.4508 11.216C31.8134 10.5333 32.3201 10.0107 32.9708 9.648C33.6321 9.27467 34.3894 9.088 35.2428 9.088C36.0748 9.088 36.8108 9.26933 37.4508 9.632C38.0908 9.99467 38.5814 10.496 38.9228 11.136C39.2748 11.7653 39.4508 12.48 39.4508 13.28ZM37.9468 12.976C37.9468 12.4213 37.8241 11.9467 37.5788 11.552C37.3334 11.1467 36.9974 10.8427 36.5708 10.64C36.1548 10.4267 35.6908 10.32 35.1788 10.32C34.4428 10.32 33.8134 10.5547 33.2908 11.024C32.7788 11.4933 32.4854 12.144 32.4108 12.976H37.9468ZM44.4766 18.144C43.8046 18.144 43.202 18.032 42.6686 17.808C42.1353 17.5733 41.714 17.2533 41.4046 16.848C41.0953 16.432 40.9246 15.9573 40.8926 15.424H42.3966C42.4393 15.8613 42.642 16.2187 43.0046 16.496C43.378 16.7733 43.8633 16.912 44.4606 16.912C45.0153 16.912 45.4526 16.7893 45.7726 16.544C46.0926 16.2987 46.2526 15.9893 46.2526 15.616C46.2526 15.232 46.082 14.9493 45.7406 14.768C45.3993 14.576 44.8713 14.3893 44.1566 14.208C43.506 14.0373 42.9726 13.8667 42.5566 13.696C42.1513 13.5147 41.7993 13.2533 41.5006 12.912C41.2126 12.56 41.0686 12.1013 41.0686 11.536C41.0686 11.088 41.202 10.6773 41.4686 10.304C41.7353 9.93067 42.114 9.63733 42.6046 9.424C43.0953 9.2 43.6553 9.088 44.2846 9.088C45.2553 9.088 46.0393 9.33333 46.6366 9.824C47.234 10.3147 47.554 10.9867 47.5966 11.84H46.1406C46.1086 11.3813 45.922 11.0133 45.5806 10.736C45.25 10.4587 44.802 10.32 44.2366 10.32C43.714 10.32 43.298 10.432 42.9886 10.656C42.6793 10.88 42.5246 11.1733 42.5246 11.536C42.5246 11.824 42.6153 12.064 42.7966 12.256C42.9886 12.4373 43.2233 12.5867 43.5006 12.704C43.7886 12.8107 44.1833 12.9333 44.6846 13.072C45.314 13.2427 45.826 13.4133 46.2206 13.584C46.6153 13.744 46.9513 13.9893 47.2286 14.32C47.5166 14.6507 47.666 15.0827 47.6766 15.616C47.6766 16.096 47.5433 16.528 47.2766 16.912C47.01 17.296 46.6313 17.6 46.1406 17.824C45.6606 18.0373 45.106 18.144 44.4766 18.144ZM52.836 18.144C52.164 18.144 51.5613 18.032 51.028 17.808C50.4947 17.5733 50.0733 17.2533 49.764 16.848C49.4547 16.432 49.284 15.9573 49.252 15.424H50.756C50.7987 15.8613 51.0013 16.2187 51.364 16.496C51.7373 16.7733 52.2227 16.912 52.82 16.912C53.3747 16.912 53.812 16.7893 54.132 16.544C54.452 16.2987 54.612 15.9893 54.612 15.616C54.612 15.232 54.4413 14.9493 54.1 14.768C53.7587 14.576 53.2307 14.3893 52.516 14.208C51.8653 14.0373 51.332 13.8667 50.916 13.696C50.5107 13.5147 50.1587 13.2533 49.86 12.912C49.572 12.56 49.428 12.1013 49.428 11.536C49.428 11.088 49.5613 10.6773 49.828 10.304C50.0947 9.93067 50.4733 9.63733 50.964 9.424C51.4547 9.2 52.0147 9.088 52.644 9.088C53.6147 9.088 54.3987 9.33333 54.996 9.824C55.5933 10.3147 55.9133 10.9867 55.956 11.84H54.5C54.468 11.3813 54.2813 11.0133 53.94 10.736C53.6093 10.4587 53.1613 10.32 52.596 10.32C52.0733 10.32 51.6573 10.432 51.348 10.656C51.0387 10.88 50.884 11.1733 50.884 11.536C50.884 11.824 50.9747 12.064 51.156 12.256C51.348 12.4373 51.5827 12.5867 51.86 12.704C52.148 12.8107 52.5427 12.9333 53.044 13.072C53.6733 13.2427 54.1853 13.4133 54.58 13.584C54.9747 13.744 55.3107 13.9893 55.588 14.32C55.876 14.6507 56.0253 15.0827 56.036 15.616C56.036 16.096 55.9027 16.528 55.636 16.912C55.3693 17.296 54.9907 17.6 54.5 17.824C54.02 18.0373 53.4653 18.144 52.836 18.144ZM68.661 6.848V8.032H63.813V11.792H67.749V12.976H63.813V18H62.357V6.848H68.661ZM71.8755 10.656C72.1315 10.1547 72.4942 9.76533 72.9635 9.488C73.4435 9.21067 74.0248 9.072 74.7075 9.072V10.576H74.3235C72.6915 10.576 71.8755 11.4613 71.8755 13.232V18H70.4195V9.232H71.8755V10.656ZM80.2123 18.144C79.3909 18.144 78.6443 17.9573 77.9723 17.584C77.3109 17.2107 76.7883 16.6827 76.4043 16C76.0309 15.3067 75.8443 14.5067 75.8443 13.6C75.8443 12.704 76.0363 11.9147 76.4203 11.232C76.8149 10.5387 77.3483 10.0107 78.0203 9.648C78.6923 9.27467 79.4443 9.088 80.2763 9.088C81.1083 9.088 81.8603 9.27467 82.5323 9.648C83.2043 10.0107 83.7323 10.5333 84.1163 11.216C84.5109 11.8987 84.7083 12.6933 84.7083 13.6C84.7083 14.5067 84.5056 15.3067 84.1003 16C83.7056 16.6827 83.1669 17.2107 82.4843 17.584C81.8016 17.9573 81.0443 18.144 80.2123 18.144ZM80.2123 16.864C80.7349 16.864 81.2256 16.7413 81.6843 16.496C82.1429 16.2507 82.5109 15.8827 82.7883 15.392C83.0763 14.9013 83.2203 14.304 83.2203 13.6C83.2203 12.896 83.0816 12.2987 82.8043 11.808C82.5269 11.3173 82.1643 10.9547 81.7163 10.72C81.2683 10.4747 80.7829 10.352 80.2603 10.352C79.7269 10.352 79.2363 10.4747 78.7883 10.72C78.3509 10.9547 77.9989 11.3173 77.7323 11.808C77.4656 12.2987 77.3323 12.896 77.3323 13.6C77.3323 14.3147 77.4603 14.9173 77.7163 15.408C77.9829 15.8987 78.3349 16.2667 78.7723 16.512C79.2096 16.7467 79.6896 16.864 80.2123 16.864ZM97.1666 9.072C97.8493 9.072 98.4573 9.216 98.9906 9.504C99.524 9.78133 99.9453 10.2027 100.255 10.768C100.564 11.3333 100.719 12.0213 100.719 12.832V18H99.2786V13.04C99.2786 12.1653 99.06 11.4987 98.6226 11.04C98.196 10.5707 97.6146 10.336 96.8786 10.336C96.1213 10.336 95.5186 10.5813 95.0706 11.072C94.6226 11.552 94.3986 12.2507 94.3986 13.168V18H92.9586V13.04C92.9586 12.1653 92.74 11.4987 92.3026 11.04C91.876 10.5707 91.2946 10.336 90.5586 10.336C89.8013 10.336 89.1986 10.5813 88.7506 11.072C88.3026 11.552 88.0786 12.2507 88.0786 13.168V18H86.6226V9.232H88.0786V10.496C88.3666 10.0373 88.7506 9.68533 89.2306 9.44C89.7213 9.19467 90.26 9.072 90.8466 9.072C91.5826 9.072 92.2333 9.23733 92.7986 9.568C93.364 9.89867 93.7853 10.384 94.0626 11.024C94.308 10.4053 94.7133 9.92533 95.2786 9.584C95.844 9.24267 96.4733 9.072 97.1666 9.072Z"
              fill="#5C5C5C"
            />
            <path
              d="M70 28C79.1925 28 88.2951 29.8106 96.7878 33.3284C105.281 36.8463 112.997 42.0024 119.497 48.5025C125.998 55.0026 131.154 62.7194 134.672 71.2122C138.189 79.705 140 88.8075 140 98C140 107.193 138.189 116.295 134.672 124.788C131.154 133.281 125.998 140.997 119.497 147.497C112.997 153.998 105.281 159.154 96.7878 162.672C88.295 166.189 79.1925 168 70 168L70 150.5C76.8944 150.5 83.7213 149.142 90.0909 146.504C96.4605 143.865 102.248 139.998 107.123 135.123C111.998 130.248 115.865 124.46 118.504 118.091C121.142 111.721 122.5 104.894 122.5 98C122.5 91.1056 121.142 84.2787 118.504 77.9091C115.865 71.5395 111.998 65.752 107.123 60.8769C102.248 56.0018 96.4605 52.1347 90.0909 49.4963C83.7213 46.858 76.8944 45.5 70 45.5V28Z"
              fill="#2D5BFF"
            />
            <path
              d="M70 168C60.8075 168 51.7049 166.189 43.2122 162.672C34.7194 159.154 27.0026 153.998 20.5025 147.497C14.0024 140.997 8.84626 133.281 5.32843 124.788C1.8106 116.295 -8.03636e-07 107.193 0 98H17.5C17.5 104.894 18.858 111.721 21.4963 118.091C24.1347 124.46 28.0018 130.248 32.8769 135.123C37.752 139.998 43.5395 143.865 49.9091 146.504C56.2787 149.142 63.1056 150.5 70 150.5V168Z"
              fill="#6284FD"
            />
            <path
              d="M0 98C1.62302e-06 79.4348 7.37498 61.6301 20.5025 48.5025C33.6301 35.375 51.4348 28 70 28V45.5C56.0761 45.5 42.7226 51.0312 32.8769 60.8769C23.0312 70.7225 17.5 84.0761 17.5 98H0Z"
              fill="#96ADFF"
            />
          </svg>
